<?xml version="1.0" standalone="no"?>
<!DOCTYPE svg PUBLIC "-//W3C//DTD SVG 20010904//EN"
 "http://www.w3.org/TR/2001/REC-SVG-20010904/DTD/svg10.dtd">
<svg version="1.0" xmlns="http://www.w3.org/2000/svg"
 width="173.000000pt" height="103.000000pt" viewBox="0 0 173.000000 103.000000"
 preserveAspectRatio="xMidYMid meet">

<g transform="translate(0.000000,103.000000) scale(0.100000,-0.100000)"
fill="#000000" stroke="none">
<path d="M140 640 l0 -170 135 0 135 0 0 -70 0 -70 -135 0 -135 0 0 -55 0 -55
185 0 185 0 0 180 0 180 -125 0 -125 0 0 115 0 115 -60 0 -60 0 0 -170z"/>
<path d="M1110 510 l0 -300 185 0 185 0 0 135 0 135 55 0 55 0 0 55 0 55 -100
0 -100 0 0 -135 0 -135 -90 0 -90 0 0 80 0 80 65 0 65 0 0 55 0 55 -65 0 -65
0 0 60 0 60 95 0 95 0 0 50 0 50 -145 0 -145 0 0 -300z"/>
<path d="M600 510 l0 -290 180 0 180 0 0 125 0 125 40 0 40 0 0 55 0 55 -85 0
-85 0 0 -125 0 -125 -80 0 -80 0 0 235 0 235 -55 0 -55 0 0 -290z"/>
</g>
</svg>
